<svg width="28" height="28" viewBox="0 0 28 28" fill="none" xmlns="http://www.w3.org/2000/svg">
<path opacity="0.5" d="M13.9987 25.6615C20.4422 25.6615 25.6654 20.4383 25.6654 13.9948C25.6654 7.55129 20.4422 2.32812 13.9987 2.32812C7.5552 2.32812 2.33203 7.55129 2.33203 13.9948C2.33203 20.4383 7.5552 25.6615 13.9987 25.6615Z" fill="#25252B"/>
<path d="M15.1941 16.988C15.7692 16.7582 16.0562 16.6427 16.2814 16.4455C16.3397 16.395 16.3938 16.3409 16.4436 16.2833C16.6419 16.0582 16.7562 15.77 16.9861 15.196C18.0641 12.501 18.6031 11.1535 18.0804 10.3847C17.9563 10.202 17.7987 10.0444 17.6161 9.92034C16.8461 9.39767 15.4997 9.93667 12.8047 11.0147C12.2296 11.2445 11.9414 11.3588 11.7162 11.5572C11.6587 11.6077 11.605 11.6618 11.5552 11.7193C11.3569 11.9445 11.2426 12.2327 11.0127 12.8067C9.93472 15.5017 9.39572 16.848 9.91839 17.618C10.0425 17.8007 10.2 17.9582 10.3827 18.0823C11.1527 18.605 12.4991 18.066 15.1941 16.988Z" fill="#25252B"/>
</svg>
