<svg width="28" height="28" viewBox="0 0 28 28" fill="none" xmlns="http://www.w3.org/2000/svg">
<path d="M8.09569 2.32812C8.58086 2.32812 8.97417 2.70637 8.97417 3.17295V4.87714C9.7534 4.8626 10.6268 4.8626 11.6096 4.8626H16.2948C17.2775 4.8626 18.151 4.8626 18.9302 4.87714V3.17295C18.9302 2.70637 19.3235 2.32812 19.8087 2.32812C20.2938 2.32812 20.6872 2.70637 20.6872 3.17295V4.95189C22.373 5.08171 23.4798 5.40034 24.2929 6.18231C25.1061 6.96428 25.4374 8.02864 25.5724 9.64996L25.6654 10.4948H3.41068H2.33203V9.64996C2.46703 8.02864 2.79835 6.96428 3.61146 6.18231C4.42458 5.40034 5.53133 5.08171 7.21721 4.95189V3.17295C7.21721 2.70637 7.61052 2.32812 8.09569 2.32812Z" fill="#25252B"/>
<path opacity="0.5" d="M25.6658 16.3334V14.0001C25.6658 13.0212 25.662 11.2761 25.647 10.5H2.34371C2.32865 11.2761 2.33246 13.0212 2.33246 14.0001V16.3334C2.33246 20.7332 2.33246 22.9331 3.69929 24.2999C5.06613 25.6668 7.26602 25.6668 11.6658 25.6668H16.3324C20.7323 25.6668 22.9321 25.6668 24.299 24.2999C25.6658 22.9331 25.6658 20.7332 25.6658 16.3334Z" fill="#25252B"/>
</svg>
