<svg width="137" height="137" viewBox="0 0 137 137" fill="none" xmlns="http://www.w3.org/2000/svg">
<path d="M137 68.5C137 72.8708 130.945 76.6326 130.121 80.7526C129.262 85.016 133.417 90.784 131.805 94.7249C130.157 98.7374 123.135 99.8481 120.735 103.395C118.334 106.978 119.947 113.892 116.937 116.937C113.892 119.982 106.978 118.334 103.395 120.735C99.8481 123.099 98.7016 130.121 94.7249 131.805C90.784 133.417 85.0518 129.297 80.7526 130.121C76.5968 130.945 72.8708 137 68.5 137C64.1292 137 60.3674 130.945 56.2474 130.121C51.984 129.262 46.216 133.417 42.2751 131.805C38.2626 130.157 37.1519 123.135 33.6051 120.735C30.0225 118.334 23.108 119.947 20.0628 116.937C17.0175 113.892 18.6655 106.978 16.2652 103.395C13.9006 99.8481 6.87866 98.7016 5.19482 94.7249C3.58264 90.784 7.70267 85.0518 6.87866 80.7526C6.05466 76.5968 0 72.8708 0 68.5C0 64.1292 6.05466 60.3674 6.87866 56.2474C7.7385 51.984 3.58264 46.216 5.19482 42.2751C6.84283 38.2626 13.8648 37.1519 16.2652 33.6051C18.6655 30.0225 17.0533 23.108 20.0628 20.0628C23.108 17.0175 30.0225 18.6655 33.6051 16.2652C37.1519 13.9006 38.2984 6.87866 42.2751 5.19482C46.216 3.58264 51.9482 7.70266 56.2474 6.87865C60.4032 6.05465 64.1292 0 68.5 0C72.8708 0 76.6326 6.05465 80.7526 6.87865C85.016 7.73849 90.784 3.58264 94.7249 5.19482C98.7374 6.84283 99.8481 13.8648 103.395 16.2652C106.978 18.6655 113.892 17.0533 116.937 20.0628C119.982 23.108 118.334 30.0225 120.735 33.6051C123.099 37.1519 130.121 38.2984 131.805 42.2751C133.417 46.216 129.297 51.9482 130.121 56.2474C130.945 60.4032 137 64.1292 137 68.5Z" fill="#FFBE17"/>
</svg>
