<svg width="214" height="196" viewBox="0 0 214 196" fill="none" xmlns="http://www.w3.org/2000/svg">
<path d="M65.4964 84.532C45.0543 84.532 28.4336 67.9111 28.4336 47.4691C28.4336 27.027 45.0543 10.4062 65.4964 10.4062C85.9384 10.4062 102.559 27.027 102.559 47.4691C102.528 67.9111 85.9074 84.532 65.4964 84.532ZM65.4964 25.9707C53.6288 25.9707 43.9671 35.6326 43.9671 47.5002C43.9671 59.3677 53.6288 69.0295 65.4964 69.0295C77.364 69.0295 87.0259 59.3677 87.0259 47.5002C87.0259 35.6326 77.364 25.9707 65.4964 25.9707Z" fill="#DEC8FE"/>
<path d="M65.568 112.77C61.0944 112.77 56.6207 112.304 52.2092 111.403C35.1535 107.861 20.4899 97.8576 10.9213 83.2872C1.35266 68.7168 -1.94051 51.2882 1.60112 34.2013C4.67675 19.4135 12.8474 6.08579 24.5596 -3.35856C36.1476 -12.6786 50.6559 -17.8047 65.4438 -17.8047C69.9174 -17.8047 74.3911 -17.3387 78.8026 -16.4378C95.8583 -12.8961 110.522 -2.89258 120.09 11.6778C129.659 26.2482 132.952 43.6768 129.411 60.7637C126.335 75.5515 118.164 88.8792 106.452 98.3236C94.8331 107.644 80.3248 112.77 65.568 112.77ZM65.4438 -2.27121C42.0504 -2.27121 21.5772 14.3806 16.7929 37.3391C11.2009 64.1809 28.5052 90.5879 55.347 96.18C58.7022 96.8945 62.1506 97.2362 65.5369 97.2362C88.9303 97.2362 109.403 80.5843 114.188 57.6259C116.891 44.6088 114.374 31.3432 107.104 20.2212C99.8348 9.09926 88.6507 1.48786 75.6337 -1.21497C72.2784 -1.89844 68.8301 -2.27121 65.4438 -2.27121Z" fill="#DEC8FE"/>
<path d="M65.5906 140.081C62.7325 140.081 59.8432 139.957 56.9539 139.677C32.3178 137.409 10.074 125.666 -5.7391 106.653C-21.5522 87.64 -28.9772 63.5942 -26.7093 38.9892C-24.5657 15.8754 -13.9408 -5.46765 3.27031 -21.0322C20.3571 -36.5346 42.4146 -45.0469 65.3731 -45.0469C68.2313 -45.0469 71.1204 -44.9227 74.0097 -44.6431C98.6458 -42.3752 120.89 -30.6319 136.703 -11.6189C152.516 7.39408 159.941 31.4399 157.673 56.076C155.529 79.1898 144.905 100.533 127.693 116.097C110.607 131.538 88.5491 140.081 65.5906 140.081ZM65.3731 -29.5445C25.3899 -29.5445 -7.54104 0.528362 -11.238 40.4183C-15.1524 82.7315 16.0699 120.322 58.383 124.237C60.7752 124.454 63.1985 124.579 65.5906 124.579C105.574 124.579 138.505 94.5058 142.202 54.6158C146.116 12.3026 114.894 -25.2883 72.5807 -29.2027C70.1886 -29.4513 67.7653 -29.5445 65.3731 -29.5445Z" fill="#DEC8FE"/>
<path d="M65.5597 167.917C64.1617 167.917 62.7325 167.886 61.3035 167.855C45.0554 167.295 29.3978 163.567 14.7652 156.764C0.629772 150.209 -11.9213 141.075 -22.6083 129.642C-33.2954 118.21 -41.497 105.037 -47.058 90.4978C-52.8364 75.4304 -55.4461 59.5552 -54.8869 43.3072C-53.7996 11.8985 -40.7514 -17.3977 -18.1036 -39.2067C4.45099 -60.9535 34.1199 -72.9453 65.4044 -72.9453C66.8024 -72.9453 68.2314 -72.9143 69.6604 -72.8832C85.9084 -72.324 101.566 -68.596 116.199 -61.7923C130.334 -55.2372 142.885 -46.1035 153.572 -34.6709C164.259 -23.2382 172.461 -10.0658 178.022 4.4735C183.8 19.541 186.41 35.4161 185.851 51.6642C184.763 83.0728 171.715 112.369 149.068 134.178C126.513 155.956 96.8441 167.917 65.5597 167.917ZM65.4044 -57.4118C8.61397 -57.4118 -37.3962 -12.924 -39.3535 43.8663C-41.3728 101.682 4.04713 150.333 61.8317 152.352C63.0743 152.383 64.317 152.414 65.5286 152.414C122.319 152.414 168.329 107.926 170.286 51.1361C172.306 -6.67947 126.886 -55.3304 69.1013 -57.3497C67.8897 -57.3808 66.647 -57.4118 65.4044 -57.4118Z" fill="#DEC8FE"/>
<path d="M65.5 196C45.4618 196 26.0139 192.086 7.68438 184.319C-9.99271 176.832 -25.8679 166.145 -39.5063 152.506C-53.1447 138.868 -63.8627 122.993 -71.3188 105.316C-79.0545 86.9861 -83 67.5382 -83 47.5C-83 27.4618 -79.0855 8.01388 -71.3188 -10.3156C-63.8317 -27.9927 -53.1447 -43.8679 -39.5063 -57.5063C-25.8679 -71.1447 -9.99271 -81.8627 7.68438 -89.3188C26.0139 -97.0545 45.4618 -101 65.5 -101C85.5382 -101 104.986 -97.0855 123.316 -89.3188C140.993 -81.8317 156.868 -71.1447 170.506 -57.5063C184.145 -43.8679 194.863 -27.9927 202.319 -10.3156C210.054 8.01388 214 27.4618 214 47.5C214 67.5382 210.086 86.9861 202.319 105.316C194.832 122.993 184.145 138.868 170.506 152.506C156.868 166.145 140.993 176.863 123.316 184.319C104.986 192.086 85.5382 196 65.5 196ZM65.5 -85.4976C-7.81799 -85.4976 -67.4665 -25.8491 -67.4665 47.4689C-67.4665 120.787 -7.81799 180.435 65.5 180.435C138.818 180.435 198.467 120.787 198.467 47.4689C198.467 -25.818 138.818 -85.4976 65.5 -85.4976Z" fill="#DEC8FE"/>
</svg>
