<svg width="28" height="28" viewBox="0 0 28 28" fill="none" xmlns="http://www.w3.org/2000/svg">
<path opacity="0.5" fill-rule="evenodd" clip-rule="evenodd" d="M2.33203 18.8294V5.82576C2.33203 4.54476 3.3657 3.50409 4.64436 3.58226C5.7842 3.65226 7.13053 3.79109 8.16536 4.06409C9.39036 4.38609 10.844 5.07443 11.9944 5.68343C12.6118 6.00715 13.3018 6.1674 13.9987 6.14893V23.8823C13.3363 23.8826 12.684 23.7199 12.0994 23.4086C10.9327 22.7879 9.4277 22.0669 8.16536 21.7344C7.1422 21.4638 5.81336 21.3261 4.68286 21.2549C3.38903 21.1733 2.33203 20.1268 2.33203 18.8294Z" fill="#25252B"/>
<path d="M25.6667 18.8384V5.76008C25.6667 4.50825 24.6797 3.48158 23.429 3.52475C22.1118 3.57142 20.4715 3.70675 19.25 4.07308C18.1907 4.38925 16.9575 5.02508 15.953 5.60725C15.3587 5.95221 14.687 6.14162 14 6.15792V23.8913C14.6533 23.8913 15.3078 23.7326 15.8993 23.4176C17.066 22.7969 18.571 22.0759 19.8333 21.7434C20.8565 21.4728 22.1853 21.3351 23.3158 21.2639C24.6097 21.1823 25.6667 20.1358 25.6667 18.8384Z" fill="#25252B"/>
</svg>
