<svg width="300" height="297" viewBox="0 0 300 297" fill="none" xmlns="http://www.w3.org/2000/svg">
<g opacity="0.1">
<path d="M12.5676 25.1349C19.5084 25.1349 25.1348 19.5083 25.1348 12.5674C25.1348 5.62664 19.5084 0 12.5676 0C5.62682 0 0 5.62664 0 12.5674C0 19.5083 5.62682 25.1349 12.5676 25.1349Z" fill="white" fill-opacity="0.7"/>
<path d="M67.5047 25.1349C74.4455 25.1349 80.0723 19.5083 80.0723 12.5674C80.0723 5.62664 74.4455 0 67.5047 0C60.5639 0 54.9375 5.62664 54.9375 12.5674C54.9375 19.5083 60.5639 25.1349 67.5047 25.1349Z" fill="white" fill-opacity="0.7"/>
<path d="M122.439 25.1349C129.38 25.1349 135.006 19.5083 135.006 12.5674C135.006 5.62664 129.38 0 122.439 0C115.498 0 109.871 5.62664 109.871 12.5674C109.871 19.5083 115.498 25.1349 122.439 25.1349Z" fill="white" fill-opacity="0.7"/>
<path d="M177.466 25.1349C184.406 25.1349 190.033 19.5083 190.033 12.5674C190.033 5.62664 184.406 0 177.466 0C170.525 0 164.898 5.62664 164.898 12.5674C164.898 19.5083 170.525 25.1349 177.466 25.1349Z" fill="white" fill-opacity="0.7"/>
<path d="M232.404 25.1349C239.344 25.1349 244.971 19.5083 244.971 12.5674C244.971 5.62664 239.344 0 232.404 0C225.463 0 219.836 5.62664 219.836 12.5674C219.836 19.5083 225.463 25.1349 232.404 25.1349Z" fill="white" fill-opacity="0.7"/>
<path d="M287.434 25.1349C294.375 25.1349 300.002 19.5083 300.002 12.5674C300.002 5.62664 294.375 0 287.434 0C280.494 0 274.867 5.62664 274.867 12.5674C274.867 19.5083 280.494 25.1349 287.434 25.1349Z" fill="white" fill-opacity="0.7"/>
<path d="M12.5676 70.4005C19.5084 70.4005 25.1348 64.7739 25.1348 57.8331C25.1348 50.8923 19.5084 45.2656 12.5676 45.2656C5.62682 45.2656 0 50.8923 0 57.8331C0 64.7739 5.62682 70.4005 12.5676 70.4005Z" fill="white" fill-opacity="0.7"/>
<path d="M67.5047 70.4005C74.4455 70.4005 80.0723 64.7739 80.0723 57.8331C80.0723 50.8923 74.4455 45.2656 67.5047 45.2656C60.5639 45.2656 54.9375 50.8923 54.9375 57.8331C54.9375 64.7739 60.5639 70.4005 67.5047 70.4005Z" fill="white" fill-opacity="0.7"/>
<path d="M122.439 70.4005C129.38 70.4005 135.006 64.7739 135.006 57.8331C135.006 50.8923 129.38 45.2656 122.439 45.2656C115.498 45.2656 109.871 50.8923 109.871 57.8331C109.871 64.7739 115.498 70.4005 122.439 70.4005Z" fill="white" fill-opacity="0.7"/>
<path d="M177.466 70.4005C184.406 70.4005 190.033 64.7739 190.033 57.8331C190.033 50.8923 184.406 45.2656 177.466 45.2656C170.525 45.2656 164.898 50.8923 164.898 57.8331C164.898 64.7739 170.525 70.4005 177.466 70.4005Z" fill="white" fill-opacity="0.7"/>
<path d="M232.404 70.4005C239.344 70.4005 244.971 64.7739 244.971 57.8331C244.971 50.8923 239.344 45.2656 232.404 45.2656C225.463 45.2656 219.836 50.8923 219.836 57.8331C219.836 64.7739 225.463 70.4005 232.404 70.4005Z" fill="white" fill-opacity="0.7"/>
<path d="M287.434 70.4005C294.375 70.4005 300.002 64.7739 300.002 57.8331C300.002 50.8923 294.375 45.2656 287.434 45.2656C280.494 45.2656 274.867 50.8923 274.867 57.8331C274.867 64.7739 280.494 70.4005 287.434 70.4005Z" fill="white" fill-opacity="0.7"/>
<path d="M12.5676 115.674C19.5084 115.674 25.1348 110.047 25.1348 103.107C25.1348 96.1657 19.5084 90.5391 12.5676 90.5391C5.62682 90.5391 0 96.1657 0 103.107C0 110.047 5.62682 115.674 12.5676 115.674Z" fill="white" fill-opacity="0.7"/>
<path d="M67.5047 115.674C74.4455 115.674 80.0723 110.047 80.0723 103.107C80.0723 96.1657 74.4455 90.5391 67.5047 90.5391C60.5639 90.5391 54.9375 96.1657 54.9375 103.107C54.9375 110.047 60.5639 115.674 67.5047 115.674Z" fill="white" fill-opacity="0.7"/>
<path d="M122.439 115.674C129.38 115.674 135.006 110.047 135.006 103.107C135.006 96.1657 129.38 90.5391 122.439 90.5391C115.498 90.5391 109.871 96.1657 109.871 103.107C109.871 110.047 115.498 115.674 122.439 115.674Z" fill="white" fill-opacity="0.7"/>
<path d="M177.466 115.674C184.406 115.674 190.033 110.047 190.033 103.107C190.033 96.1657 184.406 90.5391 177.466 90.5391C170.525 90.5391 164.898 96.1657 164.898 103.107C164.898 110.047 170.525 115.674 177.466 115.674Z" fill="white" fill-opacity="0.7"/>
<path d="M232.404 115.674C239.344 115.674 244.971 110.047 244.971 103.107C244.971 96.1657 239.344 90.5391 232.404 90.5391C225.463 90.5391 219.836 96.1657 219.836 103.107C219.836 110.047 225.463 115.674 232.404 115.674Z" fill="white" fill-opacity="0.7"/>
<path d="M287.434 115.674C294.375 115.674 300.002 110.047 300.002 103.107C300.002 96.1657 294.375 90.5391 287.434 90.5391C280.494 90.5391 274.867 96.1657 274.867 103.107C274.867 110.047 280.494 115.674 287.434 115.674Z" fill="white" fill-opacity="0.7"/>
<path d="M12.5676 160.94C19.5084 160.94 25.1348 155.313 25.1348 148.372C25.1348 141.431 19.5084 135.805 12.5676 135.805C5.62682 135.805 0 141.431 0 148.372C0 155.313 5.62682 160.94 12.5676 160.94Z" fill="white" fill-opacity="0.7"/>
<path d="M67.5047 160.94C74.4455 160.94 80.0723 155.313 80.0723 148.372C80.0723 141.431 74.4455 135.805 67.5047 135.805C60.5639 135.805 54.9375 141.431 54.9375 148.372C54.9375 155.313 60.5639 160.94 67.5047 160.94Z" fill="white" fill-opacity="0.7"/>
<path d="M122.439 160.94C129.38 160.94 135.006 155.313 135.006 148.372C135.006 141.431 129.38 135.805 122.439 135.805C115.498 135.805 109.871 141.431 109.871 148.372C109.871 155.313 115.498 160.94 122.439 160.94Z" fill="white" fill-opacity="0.7"/>
<path d="M177.466 160.94C184.406 160.94 190.033 155.313 190.033 148.372C190.033 141.431 184.406 135.805 177.466 135.805C170.525 135.805 164.898 141.431 164.898 148.372C164.898 155.313 170.525 160.94 177.466 160.94Z" fill="white" fill-opacity="0.7"/>
<path d="M232.404 160.94C239.344 160.94 244.971 155.313 244.971 148.372C244.971 141.431 239.344 135.805 232.404 135.805C225.463 135.805 219.836 141.431 219.836 148.372C219.836 155.313 225.463 160.94 232.404 160.94Z" fill="white" fill-opacity="0.7"/>
<path d="M287.434 160.94C294.375 160.94 300.002 155.313 300.002 148.372C300.002 141.431 294.375 135.805 287.434 135.805C280.494 135.805 274.867 141.431 274.867 148.372C274.867 155.313 280.494 160.94 287.434 160.94Z" fill="white" fill-opacity="0.7"/>
<path d="M12.5676 206.213C19.5084 206.213 25.1348 200.586 25.1348 193.646C25.1348 186.705 19.5084 181.078 12.5676 181.078C5.62682 181.078 0 186.705 0 193.646C0 200.586 5.62682 206.213 12.5676 206.213Z" fill="white" fill-opacity="0.7"/>
<path d="M67.5047 206.213C74.4455 206.213 80.0723 200.586 80.0723 193.646C80.0723 186.705 74.4455 181.078 67.5047 181.078C60.5639 181.078 54.9375 186.705 54.9375 193.646C54.9375 200.586 60.5639 206.213 67.5047 206.213Z" fill="white" fill-opacity="0.7"/>
<path d="M122.439 206.213C129.38 206.213 135.006 200.586 135.006 193.646C135.006 186.705 129.38 181.078 122.439 181.078C115.498 181.078 109.871 186.705 109.871 193.646C109.871 200.586 115.498 206.213 122.439 206.213Z" fill="white" fill-opacity="0.7"/>
<path d="M177.466 206.213C184.406 206.213 190.033 200.586 190.033 193.646C190.033 186.705 184.406 181.078 177.466 181.078C170.525 181.078 164.898 186.705 164.898 193.646C164.898 200.586 170.525 206.213 177.466 206.213Z" fill="white" fill-opacity="0.7"/>
<path d="M232.404 206.213C239.344 206.213 244.971 200.586 244.971 193.646C244.971 186.705 239.344 181.078 232.404 181.078C225.463 181.078 219.836 186.705 219.836 193.646C219.836 200.586 225.463 206.213 232.404 206.213Z" fill="white" fill-opacity="0.7"/>
<path d="M287.434 206.213C294.375 206.213 300.002 200.586 300.002 193.646C300.002 186.705 294.375 181.078 287.434 181.078C280.494 181.078 274.867 186.705 274.867 193.646C274.867 200.586 280.494 206.213 287.434 206.213Z" fill="white" fill-opacity="0.7"/>
<path d="M12.5676 251.479C19.5084 251.479 25.1348 245.852 25.1348 238.911C25.1348 231.97 19.5084 226.344 12.5676 226.344C5.62682 226.344 0 231.97 0 238.911C0 245.852 5.62682 251.479 12.5676 251.479Z" fill="white" fill-opacity="0.7"/>
<path d="M67.5047 251.479C74.4455 251.479 80.0723 245.852 80.0723 238.911C80.0723 231.97 74.4455 226.344 67.5047 226.344C60.5639 226.344 54.9375 231.97 54.9375 238.911C54.9375 245.852 60.5639 251.479 67.5047 251.479Z" fill="white" fill-opacity="0.7"/>
<path d="M122.439 251.479C129.38 251.479 135.006 245.852 135.006 238.911C135.006 231.97 129.38 226.344 122.439 226.344C115.498 226.344 109.871 231.97 109.871 238.911C109.871 245.852 115.498 251.479 122.439 251.479Z" fill="white" fill-opacity="0.7"/>
<path d="M177.466 251.479C184.406 251.479 190.033 245.852 190.033 238.911C190.033 231.97 184.406 226.344 177.466 226.344C170.525 226.344 164.898 231.97 164.898 238.911C164.898 245.852 170.525 251.479 177.466 251.479Z" fill="white" fill-opacity="0.7"/>
<path d="M232.404 251.479C239.344 251.479 244.971 245.852 244.971 238.911C244.971 231.97 239.344 226.344 232.404 226.344C225.463 226.344 219.836 231.97 219.836 238.911C219.836 245.852 225.463 251.479 232.404 251.479Z" fill="white" fill-opacity="0.7"/>
<path d="M287.434 251.479C294.375 251.479 300.002 245.852 300.002 238.911C300.002 231.97 294.375 226.344 287.434 226.344C280.494 226.344 274.867 231.97 274.867 238.911C274.867 245.852 280.494 251.479 287.434 251.479Z" fill="white" fill-opacity="0.7"/>
<path d="M12.5676 296.752C19.5084 296.752 25.1348 291.125 25.1348 284.185C25.1348 277.244 19.5084 271.617 12.5676 271.617C5.62682 271.617 0 277.244 0 284.185C0 291.125 5.62682 296.752 12.5676 296.752Z" fill="white" fill-opacity="0.7"/>
<path d="M67.5047 296.752C74.4455 296.752 80.0723 291.125 80.0723 284.185C80.0723 277.244 74.4455 271.617 67.5047 271.617C60.5639 271.617 54.9375 277.244 54.9375 284.185C54.9375 291.125 60.5639 296.752 67.5047 296.752Z" fill="white" fill-opacity="0.7"/>
<path d="M122.439 296.752C129.38 296.752 135.006 291.125 135.006 284.185C135.006 277.244 129.38 271.617 122.439 271.617C115.498 271.617 109.871 277.244 109.871 284.185C109.871 291.125 115.498 296.752 122.439 296.752Z" fill="white" fill-opacity="0.7"/>
<path d="M177.466 296.752C184.406 296.752 190.033 291.125 190.033 284.185C190.033 277.244 184.406 271.617 177.466 271.617C170.525 271.617 164.898 277.244 164.898 284.185C164.898 291.125 170.525 296.752 177.466 296.752Z" fill="white" fill-opacity="0.7"/>
<path d="M232.404 296.752C239.344 296.752 244.971 291.125 244.971 284.185C244.971 277.244 239.344 271.617 232.404 271.617C225.463 271.617 219.836 277.244 219.836 284.185C219.836 291.125 225.463 296.752 232.404 296.752Z" fill="white" fill-opacity="0.7"/>
<path d="M287.434 296.752C294.375 296.752 300.002 291.125 300.002 284.185C300.002 277.244 294.375 271.617 287.434 271.617C280.494 271.617 274.867 277.244 274.867 284.185C274.867 291.125 280.494 296.752 287.434 296.752Z" fill="white" fill-opacity="0.7"/>
</g>
</svg>
