<svg width="28" height="28" viewBox="0 0 28 28" fill="none" xmlns="http://www.w3.org/2000/svg">
<path opacity="0.5" d="M15.2898 25.6615H12.7091C8.68762 25.6615 6.67745 25.6615 5.30662 24.4808C3.93579 23.3001 3.65112 21.325 3.08295 17.3723L2.75746 15.1125C2.31412 12.036 2.09245 10.4971 2.72362 9.18229C3.35479 7.86746 4.69646 7.06712 7.38096 5.46879L8.99679 4.50629C11.4328 3.05379 12.6531 2.32812 13.9995 2.32812C15.3458 2.32812 16.565 3.05379 19.0021 4.50629L20.618 5.46879C23.3013 7.06712 24.6441 7.86746 25.2753 9.18229C25.9065 10.4971 25.6836 12.036 25.2403 15.1125L24.916 17.3723C24.3478 21.325 24.0631 23.3001 22.6923 24.4808C21.3215 25.6615 19.3113 25.6615 15.2898 25.6615Z" fill="#704FE6"/>
<path d="M9.625 21C9.625 20.7679 9.71719 20.5454 9.88128 20.3813C10.0454 20.2172 10.2679 20.125 10.5 20.125H17.5C17.7321 20.125 17.9546 20.2172 18.1187 20.3813C18.2828 20.5454 18.375 20.7679 18.375 21C18.375 21.2321 18.2828 21.4546 18.1187 21.6187C17.9546 21.7828 17.7321 21.875 17.5 21.875H10.5C10.2679 21.875 10.0454 21.7828 9.88128 21.6187C9.71719 21.4546 9.625 21.2321 9.625 21Z" fill="#704FE6"/>
</svg>
