<svg width="155" height="37" viewBox="0 0 155 37" fill="none" xmlns="http://www.w3.org/2000/svg">
<path d="M5 20.6209C6.92846 20.0289 8.40765 13.1135 9.58861 10.9175C11.988 6.45585 13.9989 5.78341 17.8481 5.83105C29.9849 5.98128 37.9067 23.3234 48.1329 31.0285C54.1801 35.5848 59.1085 22.9712 61.8987 16.8647C65.013 10.049 70.3857 7.53374 75.6646 8.80466C83.78 10.7585 89.6892 21.0226 97.4859 23.0858C102.129 24.3146 104.816 20.2994 107.989 15.7692C110.206 12.6032 112.106 7.49918 114.872 5.51804C115.948 4.74732 117.769 5.01226 118.899 5.20503C124.421 6.14659 129.872 13.6032 134.577 17.7646C137.121 20.0145 140.356 23.98 143.321 24.8074C145.437 25.3979 147.85 24.8465 150 24.8465" stroke="#FFD25D" stroke-width="10" stroke-linecap="round"/>
</svg>
