<svg width="358" height="55" viewBox="0 0 358 55" fill="none" xmlns="http://www.w3.org/2000/svg">
<path d="M349.515 5.23976C338.911 -0.21056 321.007 12.1756 304.118 34.7054C305.899 19.4243 303.411 8.15377 296.201 4.44755C285.597 -1.00277 267.693 11.3834 250.804 33.9132C252.585 18.6321 250.097 7.36157 242.887 3.65535C232.283 -1.79497 214.379 10.5912 197.49 33.121C199.271 17.8399 196.783 6.5694 189.573 2.86318C178.969 -2.58714 161.065 9.79901 144.176 32.3288C145.957 17.0477 143.469 5.77719 136.259 2.07098C125.655 -3.37935 107.751 9.00681 90.8622 31.5366C92.6432 16.2555 90.1547 4.98499 82.9446 1.27877C68.3049 -6.24643 39.7626 20.2107 19.1966 60.3899C-1.36939 100.569 -6.16063 139.235 8.47902 146.76C19.0822 152.211 36.9862 139.824 53.8754 117.295C52.0943 132.576 54.5829 143.846 61.793 147.552C72.3961 153.003 90.3002 140.617 107.189 118.087C105.408 133.368 107.897 144.638 115.107 148.345C125.71 153.795 143.614 141.409 160.503 118.879C158.722 134.16 161.211 145.431 168.421 149.137C179.024 154.587 196.928 142.201 213.817 119.671C212.036 134.952 214.525 146.223 221.735 149.929C232.338 155.379 250.242 142.993 267.131 120.463C265.35 135.744 267.839 147.015 275.049 150.721C289.689 158.246 318.231 131.789 338.797 91.61C359.363 51.4308 364.169 12.7725 349.515 5.23976Z" fill="#DEC8FE"/>
</svg>
