<svg width="28" height="28" viewBox="0 0 28 28" fill="none" xmlns="http://www.w3.org/2000/svg">
<path opacity="0.5" d="M13.9987 25.6615C20.442 25.6615 25.6654 20.4381 25.6654 13.9948C25.6654 7.55147 20.442 2.32812 13.9987 2.32812C7.55537 2.32812 2.33203 7.55147 2.33203 13.9948C2.33203 20.4381 7.55537 25.6615 13.9987 25.6615Z" fill="#25252B"/>
<path d="M9.33464 15.1615C9.97896 15.1615 10.5013 14.6391 10.5013 13.9948C10.5013 13.3504 9.97896 12.8281 9.33464 12.8281C8.69031 12.8281 8.16797 13.3504 8.16797 13.9948C8.16797 14.6391 8.69031 15.1615 9.33464 15.1615Z" fill="#25252B"/>
<path d="M13.9987 15.1615C14.643 15.1615 15.1654 14.6391 15.1654 13.9948C15.1654 13.3504 14.643 12.8281 13.9987 12.8281C13.3543 12.8281 12.832 13.3504 12.832 13.9948C12.832 14.6391 13.3543 15.1615 13.9987 15.1615Z" fill="#25252B"/>
<path d="M18.6667 15.1615C19.311 15.1615 19.8333 14.6391 19.8333 13.9948C19.8333 13.3504 19.311 12.8281 18.6667 12.8281C18.0223 12.8281 17.5 13.3504 17.5 13.9948C17.5 14.6391 18.0223 15.1615 18.6667 15.1615Z" fill="#25252B"/>
</svg>
